<svg xmlns="http://www.w3.org/2000/svg" width="620" height="400" viewBox="0 0 620 400" fill="none">
  <defs></defs>
  <rect width="620" height="400" fill="#fff"/>
  <g><path d="M110 292 L110 96 A90.0 90.0 0 0 1 290 96 L290 292 Z" fill="#F4FAFA" stroke="#0D8E8C" stroke-width="2.4"/><g><path d="M174 200 L200 152 L226 200 Z" fill="none" stroke="#0D8E8C" stroke-width="3.2" stroke-linejoin="round"/><line x1="200" y1="170" x2="200" y2="186" stroke="#0D8E8C" stroke-width="3.2" stroke-linecap="round"/><circle cx="200" cy="194" r="2.4" fill="#0D8E8C"/><path d="M232 137 C232.8 141.2 232.8 141.2 237 142 C232.8 142.8 232.8 142.8 232 147 C231.2 142.8 231.2 142.8 227 142 C231.2 141.2 231.2 141.2 232 137 Z" fill="#7FE9E6"/></g><text x="200" y="324" font-family="Geist, Inter, 'Helvetica Neue', Arial, sans-serif" font-size="15" font-weight="700" fill="#142A2E" text-anchor="middle" letter-spacing="0">Something is wrong</text><text x="200" y="344" font-family="Geist, Inter, 'Helvetica Neue', Arial, sans-serif" font-size="12" font-weight="500" fill="#7E9496" text-anchor="middle" letter-spacing="0">Incident · breach · deadline</text></g>
  <g><path d="M330 292 L330 96 A90.0 90.0 0 0 1 510 96 L510 292 Z" fill="#0E2A2E" stroke="#36C9C6" stroke-width="2.4"/><g><path d="M420 142 L444 152 V170 C444 188 433 198 420 204 C407 198 396 188 396 170 V152 Z" fill="none" stroke="#36C9C6" stroke-width="3"/><path d="M409 171 l7 7 l13 -15" stroke="#7FE9E6" stroke-width="3.4" fill="none" stroke-linecap="round" stroke-linejoin="round"/><path d="M440 137 C440.8 141.2 440.8 141.2 445 142 C440.8 142.8 440.8 142.8 440 147 C439.2 142.8 439.2 142.8 435 142 C439.2 141.2 439.2 141.2 440 137 Z" fill="#7FE9E6"/></g><text x="420" y="324" font-family="Geist, Inter, 'Helvetica Neue', Arial, sans-serif" font-size="15" font-weight="700" fill="#142A2E" text-anchor="middle" letter-spacing="0">Get ahead of it</text><text x="420" y="344" font-family="Geist, Inter, 'Helvetica Neue', Arial, sans-serif" font-size="12" font-weight="500" fill="#7E9496" text-anchor="middle" letter-spacing="0">Know where you stand</text></g>
  <text x="310" y="384" font-family="Geist, Inter, 'Helvetica Neue', Arial, sans-serif" font-size="12.5" font-weight="600" fill="#7E9496" text-anchor="middle" letter-spacing="0">Both doors lead to one point of contact.</text>

</svg>
