<svg xmlns="http://www.w3.org/2000/svg" width="640" height="470" viewBox="0 0 640 470" fill="none" >
  <defs>
    <filter id="hib-glow" x="-60%" y="-60%" width="220%" height="220%">
      <feGaussianBlur stdDeviation="3" result="b"/>
      <feMerge><feMergeNode in="b"/><feMergeNode in="SourceGraphic"/></feMerge></filter>
    <linearGradient id="hib-ice" x1="0" y1="0" x2="0" y2="1">
      <stop offset="0" stop-color="#2BC0BC"/><stop offset="1" stop-color="#06504F"/></linearGradient>
    <linearGradient id="hib-rise" x1="0" y1="0" x2="1" y2="0">
      <stop offset="0" stop-color="#0D8E8C"/><stop offset="1" stop-color="#36C9C6"/></linearGradient>
  </defs>
  <rect width="640" height="470" fill="#fff"/>
  <rect x="0" y="150" width="640" height="320" fill="#13A6A2" opacity="0.06"/>
  <line x1="0" y1="150" x2="640" y2="150" stroke="#0D8E8C" stroke-width="1.5" stroke-dasharray="2 6" opacity="0.55"/>
  <text x="30" y="140" font-family="Geist, Inter, 'Helvetica Neue', Arial, sans-serif" font-size="10.5" font-weight="700" fill="#7E9496" text-anchor="start" letter-spacing="2">WATERLINE</text>
  <!-- underwater mass -->
  <path d="M252 150 L388 150 C476 176 524 256 476 360 C448 424 364 446 320 446 C276 446 192 424 164 360 C116 256 164 176 252 150 Z" fill="url(#hib-ice)" opacity="0.18" stroke="#0D8E8C" stroke-width="2"/>
  <!-- tip above water -->
  <path d="M320 78 L390 150 L250 150 Z" fill="#fff" stroke="#0D8E8C" stroke-width="2.4" stroke-linejoin="round"/>
  <path d="M305 104 l-12 20 M332 100 l-18 28" stroke="#36C9C6" stroke-width="2" stroke-linecap="round" opacity="0.65"/>
  <path d="M322 86.5 C322.88 91.12 322.88 91.12 327.5 92 C322.88 92.88 322.88 92.88 322 97.5 C321.12 92.88 321.12 92.88 316.5 92 C321.12 91.12 321.12 91.12 322 86.5 Z" fill="#7FE9E6" filter="url(#hib-glow)"/>
  <text x="320" y="138" font-family="Geist, Inter, 'Helvetica Neue', Arial, sans-serif" font-size="12.5" font-weight="700" fill="#142A2E" text-anchor="middle" letter-spacing="0">What you fund</text>
  <!-- funded chips above -->
  <g><rect x="40" y="58" width="84.0" height="27" rx="13.5" fill="#fff" stroke="#CFDCDC" stroke-width="1.5"/><circle cx="55" cy="71.5" r="5.5" fill="none" stroke="#7E9496" stroke-width="1.6"/><path d="M52 71.5 l2.4 2.4 l4.4 -5" stroke="#7E9496" stroke-width="1.6" fill="none" stroke-linecap="round" stroke-linejoin="round"/><text x="67" y="76" font-family="Geist, Inter, 'Helvetica Neue', Arial, sans-serif" font-size="12.5" font-weight="500" fill="#142A2E" text-anchor="start" letter-spacing="0">Facilities</text></g><g><rect x="470" y="66" width="77.0" height="27" rx="13.5" fill="#fff" stroke="#CFDCDC" stroke-width="1.5"/><circle cx="485" cy="79.5" r="5.5" fill="none" stroke="#7E9496" stroke-width="1.6"/><path d="M482 79.5 l2.4 2.4 l4.4 -5" stroke="#7E9496" stroke-width="1.6" fill="none" stroke-linecap="round" stroke-linejoin="round"/><text x="497" y="84" font-family="Geist, Inter, 'Helvetica Neue', Arial, sans-serif" font-size="12.5" font-weight="500" fill="#142A2E" text-anchor="start" letter-spacing="0">Computers</text></g>
  <g><rect x="64" y="104" width="133.0" height="27" rx="13.5" fill="#fff" stroke="#CFDCDC" stroke-width="1.5"/><circle cx="79" cy="117.5" r="5.5" fill="none" stroke="#7E9496" stroke-width="1.6"/><path d="M76 117.5 l2.4 2.4 l4.4 -5" stroke="#7E9496" stroke-width="1.6" fill="none" stroke-linecap="round" stroke-linejoin="round"/><text x="91" y="122" font-family="Geist, Inter, 'Helvetica Neue', Arial, sans-serif" font-size="12.5" font-weight="500" fill="#142A2E" text-anchor="start" letter-spacing="0">Power &amp; water</text></g><g><rect x="486" y="112" width="70.0" height="27" rx="13.5" fill="#fff" stroke="#CFDCDC" stroke-width="1.5"/><circle cx="501" cy="125.5" r="5.5" fill="none" stroke="#7E9496" stroke-width="1.6"/><path d="M498 125.5 l2.4 2.4 l4.4 -5" stroke="#7E9496" stroke-width="1.6" fill="none" stroke-linecap="round" stroke-linejoin="round"/><text x="513" y="130" font-family="Geist, Inter, 'Helvetica Neue', Arial, sans-serif" font-size="12.5" font-weight="500" fill="#142A2E" text-anchor="start" letter-spacing="0">Vehicles</text></g>
  <!-- underwater labels -->
  <text x="320" y="250" font-family="Geist, Inter, 'Helvetica Neue', Arial, sans-serif" font-size="15" font-weight="700" fill="#063E3E" text-anchor="middle" letter-spacing="0">The work that keeps it safe,</text>
  <text x="320" y="272" font-family="Geist, Inter, 'Helvetica Neue', Arial, sans-serif" font-size="15" font-weight="700" fill="#063E3E" text-anchor="middle" letter-spacing="0">and that nobody budgets for</text>
  <text x="320" y="318" font-family="Geist, Inter, 'Helvetica Neue', Arial, sans-serif" font-size="14.5" font-weight="600" fill="#085451" text-anchor="middle" letter-spacing="0">Security  ·  Updates  ·  Monitoring</text>
  <text x="320" y="344" font-family="Geist, Inter, 'Helvetica Neue', Arial, sans-serif" font-size="14.5" font-weight="600" fill="#085451" text-anchor="middle" letter-spacing="0">Infrastructure refresh  ·  Management</text>

</svg>
