<svg xmlns="http://www.w3.org/2000/svg" viewBox="78 12 464 352" role="img" aria-label="Two ways in, one road. The 'something is wrong' door and the 'get ahead of it' door both lead to one point of contact.">
  <style>text { font-family: 'Geist Variable', Geist, ui-sans-serif, system-ui, -apple-system, 'Segoe UI', sans-serif; }</style>
  <g stroke-linecap="round" fill="none">
    <path d="M 180 208 C 220 268, 280 268, 310 292" stroke="#E2EEEE" stroke-width="30"/>
    <path d="M 440 208 C 400 268, 340 268, 310 292" stroke="#E2EEEE" stroke-width="30"/>
    <path d="M 310 292 L 310 312" stroke="#E2EEEE" stroke-width="34"/>
    <path d="M 180 208 C 220 268, 280 268, 310 292" stroke="#36C9C6" stroke-width="2.2" stroke-dasharray="6 9"/>
    <path d="M 440 208 C 400 268, 340 268, 310 292" stroke="#36C9C6" stroke-width="2.2" stroke-dasharray="6 9"/>
  </g>
  <path d="M 110 208 L 110 96 a 78 78 0 0 1 156 0 L 266 208 Z" fill="#085451" stroke="#063E3E" stroke-width="2"/>
  <path d="M 188 120 l 30 50 -60 0 z" fill="none" stroke="#7FE9E6" stroke-width="3.4" stroke-linejoin="round"/>
  <line x1="188" y1="136" x2="188" y2="152" stroke="#7FE9E6" stroke-width="3.4" stroke-linecap="round"/>
  <circle cx="188" cy="161" r="2" fill="#7FE9E6"/>
  <text x="188" y="244" text-anchor="middle" font-size="18" font-weight="600" fill="#142A2E">Something is wrong</text>
  <path d="M 354 208 L 354 96 a 78 78 0 0 1 156 0 L 510 208 Z" fill="#F4FAFA" stroke="#0D8E8C" stroke-width="2.6"/>
  <path d="M 432 120 c 10 8 21 10 29 10 0 24 -11 38 -29 45 -18 -7 -29 -21 -29 -45 8 0 19 -2 29 -10 z" fill="none" stroke="#0D8E8C" stroke-width="3.4" stroke-linejoin="round"/>
  <path d="M 421 156 l 7 7 15 -17" fill="none" stroke="#0D8E8C" stroke-width="3.4" stroke-linecap="round" stroke-linejoin="round"/>
  <text x="432" y="244" text-anchor="middle" font-size="18" font-weight="600" fill="#142A2E">Get ahead of it</text>
  <rect x="198" y="312" width="224" height="48" rx="24" fill="#0D8E8C"/>
  <text x="310" y="342" text-anchor="middle" font-size="16" font-weight="600" fill="#FFFFFF">One point of contact</text>
  <path d="M 414 300 l 2.6 6.6 6.6 2.6 -6.6 2.6 -2.6 6.6 -2.6 -6.6 -6.6 -2.6 6.6 -2.6 z" fill="#36C9C6"/>
</svg>
