<svg xmlns="http://www.w3.org/2000/svg" width="64" height="64" viewBox="0 0 64 64" fill="none">

  <rect x="18" y="18" width="28" height="28" rx="5" fill="#EAF7F6" stroke="#142A2E" stroke-width="3.0" stroke-linecap="round" stroke-linejoin="round"/>
  <path d="M24 14 v4 M32 14 v4 M40 14 v4 M24 46 v4 M32 46 v4 M40 46 v4 M14 24 h4 M14 32 h4 M14 40 h4 M46 24 h4 M46 32 h4 M46 40 h4" stroke="#142A2E" stroke-width="3.0" stroke-linecap="round" stroke-linejoin="round"/>
  <path d="M32 25 C33.12 30.88 33.12 30.88 39 32 C33.12 33.12 33.12 33.12 32 39 C30.88 33.12 30.88 33.12 25 32 C30.88 30.88 30.88 30.88 32 25 Z" fill="#0D8E8C"/>
</svg>
