<svg xmlns="http://www.w3.org/2000/svg" width="96" height="96" viewBox="0 0 96 96" fill="none" >
  <defs>
    <filter id="glow" x="-60%" y="-60%" width="220%" height="220%">
      <feGaussianBlur stdDeviation="2.0" result="b"/>
      <feMerge><feMergeNode in="b"/><feMergeNode in="SourceGraphic"/></feMerge>
    </filter>
    <linearGradient id="tg" x1="0" y1="0" x2="1" y2="1">
      <stop offset="0" stop-color="#0D8E8C"/><stop offset="1" stop-color="#064A4A"/>
    </linearGradient>
  </defs>
  <path d="M48 12 L78 24 V46 C78 65 65 79 48 86 C31 79 18 65 18 46 V24 Z" fill="#EAF7F6" stroke="#142A2E" stroke-width="3.6" stroke-linecap="round" stroke-linejoin="round"/>
  <path d="M48 12 L78 24 V46 C78 65 65 79 48 86" stroke="#0D8E8C" stroke-width="3.6" stroke-linecap="round" stroke-linejoin="round" fill="none"/>
  <path d="M35 47 l9 9 l18 -20" stroke="#0D8E8C" stroke-width="5" stroke-linecap="round" stroke-linejoin="round" fill="none"/>
  <circle cx="27" cy="40" r="1.8" fill="#36C9C6"/><circle cx="69" cy="40" r="1.8" fill="#36C9C6"/>
  <path d="M62 21.5 C62.88 26.12 62.88 26.12 67.5 27 C62.88 27.88 62.88 27.88 62 32.5 C61.12 27.88 61.12 27.88 56.5 27 C61.12 26.12 61.12 26.12 62 21.5 Z" fill="#7FE9E6" filter="url(#glow)"/>
</svg>
