<svg xmlns="http://www.w3.org/2000/svg" width="96" height="96" viewBox="0 0 96 96" fill="none" >
  <defs>
    <filter id="glow" x="-60%" y="-60%" width="220%" height="220%">
      <feGaussianBlur stdDeviation="2.0" result="b"/>
      <feMerge><feMergeNode in="b"/><feMergeNode in="SourceGraphic"/></feMerge>
    </filter>
    <linearGradient id="tg" x1="0" y1="0" x2="1" y2="1">
      <stop offset="0" stop-color="#0D8E8C"/><stop offset="1" stop-color="#064A4A"/>
    </linearGradient>
  </defs>
  <path d="M78.0 48.0 L70.6 56.2 L71.0 67.3 L60.0 68.8 L53.2 77.5 L43.8 71.6 L33.0 74.0 L29.6 63.4 L19.8 58.3 L24.0 48.0 L19.8 37.7 L29.6 32.6 L33.0 22.0 L43.8 24.4 L53.2 18.5 L60.0 27.2 L71.0 28.7 L70.6 39.8 Z" fill="#EAF7F6" stroke="#142A2E" stroke-width="3.6" stroke-linejoin="round"/>
  <circle cx="48" cy="48" r="17" fill="#fff" stroke="#0D8E8C" stroke-width="3.6"/>
  <path d="M33 49 h7 l4 -9 l5 16 l4 -7 h6" stroke="#0D8E8C" stroke-width="3.4" stroke-linecap="round" stroke-linejoin="round" fill="none"/>
  <path d="M66 25 C66.8 29.2 66.8 29.2 71 30 C66.8 30.8 66.8 30.8 66 35 C65.2 30.8 65.2 30.8 61 30 C65.2 29.2 65.2 29.2 66 25 Z" fill="#7FE9E6" filter="url(#glow)"/>
</svg>
