<svg xmlns="http://www.w3.org/2000/svg" width="96" height="96" viewBox="0 0 96 96" fill="none" >
  <defs>
    <filter id="glow" x="-60%" y="-60%" width="220%" height="220%">
      <feGaussianBlur stdDeviation="2.0" result="b"/>
      <feMerge><feMergeNode in="b"/><feMergeNode in="SourceGraphic"/></feMerge>
    </filter>
    <linearGradient id="tg" x1="0" y1="0" x2="1" y2="1">
      <stop offset="0" stop-color="#0D8E8C"/><stop offset="1" stop-color="#064A4A"/>
    </linearGradient>
  </defs>
  <path d="M70 26 A34 34 0 1 0 78 52" stroke="#142A2E" stroke-width="3.6" stroke-linecap="round" stroke-linejoin="round" fill="none"/>
  <path d="M78 34 L78 52 L60 50" stroke="#0D8E8C" stroke-width="3.6" stroke-linecap="round" stroke-linejoin="round" fill="none"/>
  <path d="M22 50 h12 l6 -17 l9 32 l6 -15 h13" stroke="#0D8E8C" stroke-width="4.2" stroke-linecap="round" stroke-linejoin="round" fill="none"/>
  <path d="M49 60 C49.8 64.2 49.8 64.2 54 65 C49.8 65.8 49.8 65.8 49 70 C48.2 65.8 48.2 65.8 44 65 C48.2 64.2 48.2 64.2 49 60 Z" fill="#7FE9E6" filter="url(#glow)"/>
</svg>
