<svg xmlns="http://www.w3.org/2000/svg" width="96" height="96" viewBox="0 0 96 96" fill="none" >
  <defs>
    <filter id="glow" x="-60%" y="-60%" width="220%" height="220%">
      <feGaussianBlur stdDeviation="2.0" result="b"/>
      <feMerge><feMergeNode in="b"/><feMergeNode in="SourceGraphic"/></feMerge>
    </filter>
    <linearGradient id="tg" x1="0" y1="0" x2="1" y2="1">
      <stop offset="0" stop-color="#0D8E8C"/><stop offset="1" stop-color="#064A4A"/>
    </linearGradient>
  </defs>
  <rect x="16" y="22" width="30" height="13" rx="3" fill="#EAF7F6" stroke="#142A2E" stroke-width="3.6"/><circle cx="23" cy="28.5" r="2" fill="#0D8E8C"/><rect x="16" y="40" width="30" height="13" rx="3" fill="#EAF7F6" stroke="#142A2E" stroke-width="3.6"/><circle cx="23" cy="46.5" r="2" fill="#0D8E8C"/><rect x="16" y="58" width="30" height="13" rx="3" fill="#EAF7F6" stroke="#142A2E" stroke-width="3.6"/><circle cx="23" cy="64.5" r="2" fill="#0D8E8C"/>
  <path d="M52 45 h16" stroke="#142A2E" stroke-width="3.6" stroke-linecap="round" stroke-linejoin="round"/>
  <path d="M63 40 l6 5 l-6 5" stroke="#0D8E8C" stroke-width="3.6" stroke-linecap="round" stroke-linejoin="round" fill="none"/>
  <circle cx="76" cy="45" r="12" fill="none" stroke="#0D8E8C" stroke-width="3.6"/>
  <path d="M76 37 C77.28 43.72 77.28 43.72 84 45 C77.28 46.28 77.28 46.28 76 53 C74.72 46.28 74.72 46.28 68 45 C74.72 43.72 74.72 43.72 76 37 Z" fill="#7FE9E6" filter="url(#glow)"/>
</svg>
